<svg width="24" height="16" viewBox="0 0 24 16" fill="currentColor
" xmlns="http://www.w3.org/2000/svg">
<path d="M12.1797 15.5703C7.96094 15.5703 4.47656 12.0859 4.47656 7.85938C4.47656 3.63281 7.95312 0.148438 12.1797 0.148438C16.4062 0.148438 19.8906 3.63281 19.8906 7.85938C19.8906 12.0859 16.4062 15.5703 12.1797 15.5703ZM23.9688 7.85938C23.9688 10.3828 23.1406 12.7344 21.7266 14.6484C21.3984 15.0781 20.8438 15.1172 20.4375 14.7812C20.0469 14.4453 20.0234 13.9375 20.3281 13.5156C21.5 11.9219 22.1719 9.96094 22.1719 7.85938C22.1719 5.75781 21.5 3.79688 20.3281 2.19531C20.0156 1.78125 20.0391 1.27344 20.4375 0.929688C20.8438 0.601562 21.3984 0.640625 21.7188 1.07031C23.1406 2.97656 23.9688 5.33594 23.9688 7.85938ZM0.398438 7.85938C0.398438 5.33594 1.21875 2.97656 2.64844 1.07031C2.96875 0.640625 3.52344 0.601562 3.92969 0.929688C4.32812 1.27344 4.35156 1.78125 4.03906 2.19531C2.86719 3.79688 2.19531 5.75781 2.19531 7.85938C2.19531 9.96094 2.86719 11.9219 4.03906 13.5156C4.34375 13.9375 4.32031 14.4453 3.92969 14.7812C3.52344 15.1172 2.96875 15.0781 2.64062 14.6484C1.21875 12.7344 0.398438 10.3828 0.398438 7.85938ZM12.1797 13.7812C15.4688 13.7812 18.1094 11.1406 18.1016 7.85938C18.0938 4.57812 15.4531 1.94531 12.1797 1.94531C8.89844 1.94531 6.27344 4.57812 6.27344 7.85938C6.27344 11.1406 8.90625 13.7812 12.1797 13.7812Z" fill="#111111"/>
</svg>
